<svg width="26" height="26" viewBox="0 0 26 26" fill="none" xmlns="http://www.w3.org/2000/svg">
<g clip-path="url(#clip0_230_1843)">
<path d="M23.5928 12.2151C23.5928 14.7252 22.7779 17.044 21.4053 18.9252L24.6445 22.1699C25.3281 22.8535 25.3281 23.9637 24.6445 24.6473C23.9609 25.3309 22.8508 25.3309 22.1672 24.6473L18.9279 21.4026C17.0467 22.7807 14.7279 23.5901 12.2178 23.5901C5.93419 23.5901 0.842789 18.4987 0.842789 12.2151C0.842789 5.93146 5.93419 0.840057 12.2178 0.840057C18.5014 0.840057 23.5928 5.93146 23.5928 12.2151ZM12.2178 20.0901C16.5654 20.0901 20.0928 16.5627 20.0928 12.2151C20.0928 7.8674 16.5654 4.34006 12.2178 4.34006C7.87013 4.34006 4.34279 7.8674 4.34279 12.2151C4.34279 16.5627 7.87013 20.0901 12.2178 20.0901Z" fill="#FF8F1E"/>
</g>
<defs>
<clipPath id="clip0_230_1843">
<rect width="26" height="26" fill="white"/>
</clipPath>
</defs>
</svg>
