<svg width="26" height="26" fill="none" xmlns="http://www.w3.org/2000/svg"><g clip-path="url(#clip0_230_1843)"><path d="M23.593 12.215c0 2.51-.815 4.829-2.188 6.71l3.24 3.245a1.753 1.753 0 01-2.478 2.477l-3.24-3.244a11.31 11.31 0 01-6.71 2.187C5.935 23.59.844 18.5.844 12.215S5.934.84 12.218.84c6.283 0 11.375 5.091 11.375 11.375zM12.218 20.09a7.877 7.877 0 007.875-7.875 7.877 7.877 0 00-7.875-7.875 7.877 7.877 0 00-7.875 7.875 7.877 7.877 0 007.875 7.875z" fill="#FF8F1E"/></g><defs><clipPath id="clip0_230_1843"><path fill="#fff" d="M0 0h26v26H0z"/></clipPath></defs></svg>